<?xml version="1.0" standalone="no"?>
<!DOCTYPE svg PUBLIC "-//W3C//DTD SVG 20010904//EN"
 "http://www.w3.org/TR/2001/REC-SVG-20010904/DTD/svg10.dtd">
<svg version="1.0" xmlns="http://www.w3.org/2000/svg"
 width="512.000000pt" height="512.000000pt" viewBox="0 0 512.000000 512.000000"
 preserveAspectRatio="xMidYMid meet">
<metadata>
Created by potrace 1.14, written by Peter Selinger 2001-2017
</metadata>
<g transform="translate(0.000000,512.000000) scale(0.100000,-0.100000)"
fill="#000000" stroke="none">
<path d="M3251 5084 c-111 -56 -214 -63 -592 -43 -316 18 -469 -3 -644 -86
-103 -48 -173 -106 -222 -182 -18 -29 -38 -53 -44 -53 -24 0 -137 -64 -172
-98 -41 -40 -93 -134 -103 -186 -4 -23 -15 -37 -40 -51 -52 -28 -113 -99 -144
-169 -50 -109 -63 -204 -57 -410 5 -186 24 -325 71 -519 l22 -94 -27 -15 c-41
-24 -86 -92 -93 -140 -12 -80 43 -227 118 -316 34 -41 106 -107 125 -114 5 -1
16 -53 25 -115 21 -141 34 -179 93 -262 69 -96 216 -263 289 -329 l64 -57 0
-190 -1 -190 -72 -105 -72 -105 -220 -6 c-225 -6 -281 -13 -395 -50 -231 -75
-393 -242 -450 -463 -27 -105 -43 -302 -35 -423 l7 -102 106 -25 c391 -92 826
-141 1464 -166 628 -24 1461 46 1969 166 l106 25 6 97 c7 126 -9 323 -34 420
-69 276 -276 451 -598 506 -64 11 -155 16 -283 16 l-188 0 -70 107 -70 108 0
192 0 193 103 103 c113 115 213 236 268 328 38 60 69 185 69 271 0 21 6 42 13
48 6 5 31 25 55 44 121 98 213 282 196 394 -11 71 -93 162 -146 162 -24 0 -23
9 12 145 60 234 74 341 75 570 0 226 -9 285 -60 385 -22 43 -68 93 -95 102 -7
2 -6 18 5 48 9 25 19 84 22 131 10 151 -31 247 -172 400 -42 46 -83 96 -91
112 -8 15 -18 26 -22 25 -4 0 -36 -16 -71 -34z"/>
</g>
</svg>
